<svg width="201" height="241" viewBox="0 0 201 241" fill="none" xmlns="http://www.w3.org/2000/svg">
  <path d="M140.24 49.24C134.773 49.2347 129.531 47.0606 125.665 43.1947C121.799 39.3288 119.625 34.0871 119.62 28.62V0H27.4798C20.3428 0 13.4982 2.83517 8.4516 7.88177C3.40499 12.9284 0.569824 19.773 0.569824 26.91V189.13C0.580423 196.26 3.42024 203.094 8.4657 208.132C13.5112 213.17 20.3497 216 27.4798 216H138.09C145.222 216 152.062 213.169 157.107 208.129C162.153 203.089 164.992 196.252 165 189.12V49.24H140.24Z" fill="#f5f6f7"/>

<path d="M165.28 49.25H140.53C135.062 49.2447 129.819 47.0709 125.952 43.2053C122.084 39.3398 119.908 34.0979 119.9 28.6299V0L165.28 49.25Z" fill="#9498A6"/>
<path d="M131.46 83.73H28.2102C27.2191 83.7273 26.2694 83.3324 25.5686 82.6316C24.8678 81.9308 24.4729 80.9811 24.4702 79.99C24.4702 78.9972 24.8638 78.0448 25.5649 77.3418C26.266 76.6388 27.2174 76.2426 28.2102 76.24H131.46C132.453 76.2426 133.404 76.6388 134.105 77.3418C134.807 78.0448 135.2 78.9972 135.2 79.99C135.198 80.9811 134.803 81.9308 134.102 82.6316C133.401 83.3324 132.451 83.7273 131.46 83.73V83.73Z" fill="#9498A6"/>
<path d="M131.46 106.1H28.2102C27.2191 106.097 26.2694 105.703 25.5686 105.002C24.8678 104.301 24.4729 103.351 24.4702 102.36C24.4702 101.367 24.8638 100.415 25.5649 99.7119C26.266 99.0089 27.2174 98.6128 28.2102 98.6101H131.46C132.453 98.6128 133.404 99.0089 134.105 99.7119C134.807 100.415 135.2 101.367 135.2 102.36C135.198 103.351 134.803 104.301 134.102 105.002C133.401 105.703 132.451 106.097 131.46 106.1V106.1Z" fill="#9498A6"/>
<path d="M131.46 128.47H28.2102C27.2174 128.467 26.266 128.071 25.5649 127.368C24.8638 126.665 24.4702 125.713 24.4702 124.72C24.4729 123.729 24.8678 122.779 25.5686 122.078C26.2694 121.378 27.2191 120.983 28.2102 120.98H131.46C132.451 120.983 133.401 121.378 134.102 122.078C134.803 122.779 135.198 123.729 135.2 124.72C135.2 125.713 134.807 126.665 134.105 127.368C133.404 128.071 132.453 128.467 131.46 128.47V128.47Z" fill="#9498A6"/>
<path d="M131.46 150.83H28.2102C27.2183 150.83 26.2671 150.436 25.5657 149.735C24.8643 149.033 24.4702 148.082 24.4702 147.09C24.4702 146.097 24.8638 145.145 25.5649 144.442C26.266 143.739 27.2174 143.343 28.2102 143.34H131.46C132.453 143.343 133.404 143.739 134.105 144.442C134.807 145.145 135.2 146.097 135.2 147.09C135.2 148.082 134.806 149.033 134.105 149.735C133.403 150.436 132.452 150.83 131.46 150.83V150.83Z" fill="#9498A6"/>
<path d="M184.8 170.61H59.7603C50.8906 170.61 43.7002 177.8 43.7002 186.67V223.95C43.7002 232.82 50.8906 240.01 59.7603 240.01H184.8C193.67 240.01 200.86 232.82 200.86 223.95V186.67C200.86 177.8 193.67 170.61 184.8 170.61Z" fill="#9498A6"/>
<path d="M86.4202 213.38V220.65H78.8901V213.38H86.4202Z" fill="white"/>
<path d="M111.81 190.58V196.37H103.64V220.65H96.3303V196.37H88.2402V190.58H111.81Z" fill="white"/>
<path d="M133.12 220.65L126.78 211.29L121.33 220.65H113L122.61 205.17L112.7 190.58H121.33L127.5 199.64L132.82 190.58H141.11L131.63 205.72L141.75 220.65H133.12Z" fill="white"/>
<path d="M166.16 190.58V196.37H158V220.65H150.68V196.37H142.6V190.58H166.16Z" fill="white"/>
</svg>
